<svg xmlns="http://www.w3.org/2000/svg" width="1084" height="678" viewBox="0 0 1084 678" role="img" aria-label="Tier 1 Items">
  <defs><clipPath id="clip-0"><rect x="24" y="76" width="250" height="106" rx="8"/></clipPath><clipPath id="clip-1"><rect x="286" y="76" width="250" height="106" rx="8"/></clipPath><clipPath id="clip-2"><rect x="548" y="76" width="250" height="106" rx="8"/></clipPath><clipPath id="clip-3"><rect x="810" y="76" width="250" height="106" rx="8"/></clipPath><clipPath id="clip-4"><rect x="24" y="194" width="250" height="106" rx="8"/></clipPath><clipPath id="clip-5"><rect x="286" y="194" width="250" height="106" rx="8"/></clipPath><clipPath id="clip-6"><rect x="548" y="194" width="250" height="106" rx="8"/></clipPath><clipPath id="clip-7"><rect x="810" y="194" width="250" height="106" rx="8"/></clipPath><clipPath id="clip-8"><rect x="24" y="312" width="250" height="106" rx="8"/></clipPath><clipPath id="clip-9"><rect x="286" y="312" width="250" height="106" rx="8"/></clipPath><clipPath id="clip-10"><rect x="548" y="312" width="250" height="106" rx="8"/></clipPath><clipPath id="clip-11"><rect x="810" y="312" width="250" height="106" rx="8"/></clipPath><clipPath id="clip-12"><rect x="24" y="430" width="250" height="106" rx="8"/></clipPath><clipPath id="clip-13"><rect x="286" y="430" width="250" height="106" rx="8"/></clipPath><clipPath id="clip-14"><rect x="548" y="430" width="250" height="106" rx="8"/></clipPath><clipPath id="clip-15"><rect x="810" y="430" width="250" height="106" rx="8"/></clipPath><clipPath id="clip-16"><rect x="24" y="548" width="250" height="106" rx="8"/></clipPath><clipPath id="clip-17"><rect x="286" y="548" width="250" height="106" rx="8"/></clipPath><clipPath id="clip-18"><rect x="548" y="548" width="250" height="106" rx="8"/></clipPath><clipPath id="clip-19"><rect x="810" y="548" width="250" height="106" rx="8"/></clipPath></defs>
  <rect width="100%" height="100%" fill="#07111f"/>
  <rect x="10" y="10" width="1064" height="658" rx="16" fill="#0f172a" stroke="#24324f"/>
  <text x="24" y="42" font-family="Inter, ui-sans-serif, system-ui, -apple-system, Segoe UI, sans-serif" font-size="24" fill="#fbbf24" font-weight="800">Tier 1 Items</text>
  <g clip-path="url(#clip-0)">
    <rect x="24" y="76" width="250" height="106" rx="8" fill="#111827" stroke="#0F766E" stroke-width="2"/>
    <g transform="translate(36 96) scale(1.3125)" aria-label="Greatsword">
    <rect x="1" y="1" width="30" height="30" rx="6" fill="#0b1220" stroke="#0F766E" stroke-width="2.5"/>
    <path d="M16 5l11 11-11 11L5 16z" fill="#0F766E"/>
    <circle cx="16" cy="16" r="3.5" fill="hsl(180 70% 60%)"/>
    <path d="M16 9l2.2 4.5 5 .7-3.6 3.5.9 5-4.5-2.4-4.5 2.4.9-5-3.6-3.5 5-.7z" fill="hsl(180 70% 60%)" opacity="0.55"/>
  </g>
    <text x="90" y="102" font-family="Inter, ui-sans-serif, system-ui, -apple-system, Segoe UI, sans-serif" font-size="12" fill="#f8fafc" font-weight="800">Greatsword</text>
    <text x="90" y="120" font-family="Inter, ui-sans-serif, system-ui, -apple-system, Segoe UI, sans-serif" font-size="10" fill="#cbd5e1" font-weight="500">Tier 1 · +35 AD</text>
    <text x="90" y="144" font-family="Inter, ui-sans-serif, system-ui, -apple-system, Segoe UI, sans-serif" font-size="9" fill="#a5b4fc" font-weight="500">Blade + Blade</text>
    <text x="90" y="164" font-family="Inter, ui-sans-serif, system-ui, -apple-system, Segoe UI, sans-serif" font-size="9" fill="#fde68a" font-weight="500">+35 AD. Attacks deal +8 bonus<tspan x="90" dy="12">physical damage.</tspan></text>
  </g>
<g clip-path="url(#clip-1)">
    <rect x="286" y="76" width="250" height="106" rx="8" fill="#111827" stroke="#0F766E" stroke-width="2"/>
    <g transform="translate(298 96) scale(1.3125)" aria-label="Staff of Cinders">
    <rect x="1" y="1" width="30" height="30" rx="6" fill="#0b1220" stroke="#0F766E" stroke-width="2.5"/>
    <path d="M16 5l11 11-11 11L5 16z" fill="#0F766E"/>
    <circle cx="16" cy="16" r="3.5" fill="hsl(194 70% 60%)"/>
    <path d="M16 9l2.2 4.5 5 .7-3.6 3.5.9 5-4.5-2.4-4.5 2.4.9-5-3.6-3.5 5-.7z" fill="hsl(194 70% 60%)" opacity="0.55"/>
  </g>
    <text x="352" y="102" font-family="Inter, ui-sans-serif, system-ui, -apple-system, Segoe UI, sans-serif" font-size="12" fill="#f8fafc" font-weight="800">Staff of Cinders</text>
    <text x="352" y="120" font-family="Inter, ui-sans-serif, system-ui, -apple-system, Segoe UI, sans-serif" font-size="10" fill="#cbd5e1" font-weight="500">Tier 1 · +45 SP</text>
    <text x="352" y="144" font-family="Inter, ui-sans-serif, system-ui, -apple-system, Segoe UI, sans-serif" font-size="9" fill="#a5b4fc" font-weight="500">Rod + Rod</text>
    <text x="352" y="164" font-family="Inter, ui-sans-serif, system-ui, -apple-system, Segoe UI, sans-serif" font-size="9" fill="#fde68a" font-weight="500">+45 spell power. Spell hits burn for<tspan x="352" dy="12">40 magic damage over 3s.</tspan></text>
  </g>
<g clip-path="url(#clip-2)">
    <rect x="548" y="76" width="250" height="106" rx="8" fill="#111827" stroke="#0F766E" stroke-width="2"/>
    <g transform="translate(560 96) scale(1.3125)" aria-label="Bastion Plate">
    <rect x="1" y="1" width="30" height="30" rx="6" fill="#0b1220" stroke="#0F766E" stroke-width="2.5"/>
    <path d="M16 5l11 11-11 11L5 16z" fill="#0F766E"/>
    <circle cx="16" cy="16" r="3.5" fill="hsl(152 70% 60%)"/>
    <path d="M16 9l2.2 4.5 5 .7-3.6 3.5.9 5-4.5-2.4-4.5 2.4.9-5-3.6-3.5 5-.7z" fill="hsl(152 70% 60%)" opacity="0.55"/>
  </g>
    <text x="614" y="102" font-family="Inter, ui-sans-serif, system-ui, -apple-system, Segoe UI, sans-serif" font-size="12" fill="#f8fafc" font-weight="800">Bastion Plate</text>
    <text x="614" y="120" font-family="Inter, ui-sans-serif, system-ui, -apple-system, Segoe UI, sans-serif" font-size="10" fill="#cbd5e1" font-weight="500">Tier 1 · +50 Armor</text>
    <text x="614" y="144" font-family="Inter, ui-sans-serif, system-ui, -apple-system, Segoe UI, sans-serif" font-size="9" fill="#a5b4fc" font-weight="500">Vest + Vest</text>
    <text x="614" y="164" font-family="Inter, ui-sans-serif, system-ui, -apple-system, Segoe UI, sans-serif" font-size="9" fill="#fde68a" font-weight="500">+50 armor. First time below 50% HP,<tspan x="614" dy="12">gain 250 shield.</tspan></text>
  </g>
<g clip-path="url(#clip-3)">
    <rect x="810" y="76" width="250" height="106" rx="8" fill="#111827" stroke="#0F766E" stroke-width="2"/>
    <g transform="translate(822 96) scale(1.3125)" aria-label="Mirror Mantle">
    <rect x="1" y="1" width="30" height="30" rx="6" fill="#0b1220" stroke="#0F766E" stroke-width="2.5"/>
    <path d="M16 5l11 11-11 11L5 16z" fill="#0F766E"/>
    <circle cx="16" cy="16" r="3.5" fill="hsl(261 70% 60%)"/>
    <path d="M16 9l2.2 4.5 5 .7-3.6 3.5.9 5-4.5-2.4-4.5 2.4.9-5-3.6-3.5 5-.7z" fill="hsl(261 70% 60%)" opacity="0.55"/>
  </g>
    <text x="876" y="102" font-family="Inter, ui-sans-serif, system-ui, -apple-system, Segoe UI, sans-serif" font-size="12" fill="#f8fafc" font-weight="800">Mirror Mantle</text>
    <text x="876" y="120" font-family="Inter, ui-sans-serif, system-ui, -apple-system, Segoe UI, sans-serif" font-size="10" fill="#cbd5e1" font-weight="500">Tier 1 · +50 MR</text>
    <text x="876" y="144" font-family="Inter, ui-sans-serif, system-ui, -apple-system, Segoe UI, sans-serif" font-size="9" fill="#a5b4fc" font-weight="500">Cloak + Cloak</text>
    <text x="876" y="164" font-family="Inter, ui-sans-serif, system-ui, -apple-system, Segoe UI, sans-serif" font-size="9" fill="#fde68a" font-weight="500">+50 MR. Reduce first spell hit by<tspan x="876" dy="12">35%.</tspan></text>
  </g>
<g clip-path="url(#clip-4)">
    <rect x="24" y="194" width="250" height="106" rx="8" fill="#111827" stroke="#0F766E" stroke-width="2"/>
    <g transform="translate(36 214) scale(1.3125)" aria-label="Blue Core">
    <rect x="1" y="1" width="30" height="30" rx="6" fill="#0b1220" stroke="#0F766E" stroke-width="2.5"/>
    <path d="M16 5l11 11-11 11L5 16z" fill="#0F766E"/>
    <circle cx="16" cy="16" r="3.5" fill="hsl(97 70% 60%)"/>
    <path d="M16 9l2.2 4.5 5 .7-3.6 3.5.9 5-4.5-2.4-4.5 2.4.9-5-3.6-3.5 5-.7z" fill="hsl(97 70% 60%)" opacity="0.55"/>
  </g>
    <text x="90" y="220" font-family="Inter, ui-sans-serif, system-ui, -apple-system, Segoe UI, sans-serif" font-size="12" fill="#f8fafc" font-weight="800">Blue Core</text>
    <text x="90" y="238" font-family="Inter, ui-sans-serif, system-ui, -apple-system, Segoe UI, sans-serif" font-size="10" fill="#cbd5e1" font-weight="500">Tier 1 · +40 Mana</text>
    <text x="90" y="262" font-family="Inter, ui-sans-serif, system-ui, -apple-system, Segoe UI, sans-serif" font-size="9" fill="#a5b4fc" font-weight="500">Tear + Tear</text>
    <text x="90" y="282" font-family="Inter, ui-sans-serif, system-ui, -apple-system, Segoe UI, sans-serif" font-size="9" fill="#fde68a" font-weight="500">+40 starting mana. Gain 5 mana after<tspan x="90" dy="12">casting.</tspan></text>
  </g>
<g clip-path="url(#clip-5)">
    <rect x="286" y="194" width="250" height="106" rx="8" fill="#111827" stroke="#0F766E" stroke-width="2"/>
    <g transform="translate(298 214) scale(1.3125)" aria-label="Giant's Heart">
    <rect x="1" y="1" width="30" height="30" rx="6" fill="#0b1220" stroke="#0F766E" stroke-width="2.5"/>
    <path d="M16 5l11 11-11 11L5 16z" fill="#0F766E"/>
    <circle cx="16" cy="16" r="3.5" fill="hsl(190 70% 60%)"/>
    <path d="M16 9l2.2 4.5 5 .7-3.6 3.5.9 5-4.5-2.4-4.5 2.4.9-5-3.6-3.5 5-.7z" fill="hsl(190 70% 60%)" opacity="0.55"/>
  </g>
    <text x="352" y="220" font-family="Inter, ui-sans-serif, system-ui, -apple-system, Segoe UI, sans-serif" font-size="12" fill="#f8fafc" font-weight="800">Giant's Heart</text>
    <text x="352" y="238" font-family="Inter, ui-sans-serif, system-ui, -apple-system, Segoe UI, sans-serif" font-size="10" fill="#cbd5e1" font-weight="500">Tier 1 · +450 HP</text>
    <text x="352" y="262" font-family="Inter, ui-sans-serif, system-ui, -apple-system, Segoe UI, sans-serif" font-size="9" fill="#a5b4fc" font-weight="500">Belt + Belt</text>
    <text x="352" y="282" font-family="Inter, ui-sans-serif, system-ui, -apple-system, Segoe UI, sans-serif" font-size="9" fill="#fde68a" font-weight="500">+450 HP. Regenerate 1% max HP per<tspan x="352" dy="12">second.</tspan></text>
  </g>
<g clip-path="url(#clip-6)">
    <rect x="548" y="194" width="250" height="106" rx="8" fill="#111827" stroke="#0F766E" stroke-width="2"/>
    <g transform="translate(560 214) scale(1.3125)" aria-label="Rapid Gears">
    <rect x="1" y="1" width="30" height="30" rx="6" fill="#0b1220" stroke="#0F766E" stroke-width="2.5"/>
    <path d="M16 5l11 11-11 11L5 16z" fill="#0F766E"/>
    <circle cx="16" cy="16" r="3.5" fill="hsl(266 70% 60%)"/>
    <path d="M16 9l2.2 4.5 5 .7-3.6 3.5.9 5-4.5-2.4-4.5 2.4.9-5-3.6-3.5 5-.7z" fill="hsl(266 70% 60%)" opacity="0.55"/>
  </g>
    <text x="614" y="220" font-family="Inter, ui-sans-serif, system-ui, -apple-system, Segoe UI, sans-serif" font-size="12" fill="#f8fafc" font-weight="800">Rapid Gears</text>
    <text x="614" y="238" font-family="Inter, ui-sans-serif, system-ui, -apple-system, Segoe UI, sans-serif" font-size="10" fill="#cbd5e1" font-weight="500">Tier 1 · +35 AS</text>
    <text x="614" y="262" font-family="Inter, ui-sans-serif, system-ui, -apple-system, Segoe UI, sans-serif" font-size="9" fill="#a5b4fc" font-weight="500">Bow + Bow</text>
    <text x="614" y="282" font-family="Inter, ui-sans-serif, system-ui, -apple-system, Segoe UI, sans-serif" font-size="9" fill="#fde68a" font-weight="500">+35% attack speed. Every 6th attack<tspan x="614" dy="12">deals +60 magic damage.</tspan></text>
  </g>
<g clip-path="url(#clip-7)">
    <rect x="810" y="194" width="250" height="106" rx="8" fill="#111827" stroke="#0F766E" stroke-width="2"/>
    <g transform="translate(822 214) scale(1.3125)" aria-label="Fate Dice">
    <rect x="1" y="1" width="30" height="30" rx="6" fill="#0b1220" stroke="#0F766E" stroke-width="2.5"/>
    <path d="M16 5l11 11-11 11L5 16z" fill="#0F766E"/>
    <circle cx="16" cy="16" r="3.5" fill="hsl(166 70% 60%)"/>
    <path d="M16 9l2.2 4.5 5 .7-3.6 3.5.9 5-4.5-2.4-4.5 2.4.9-5-3.6-3.5 5-.7z" fill="hsl(166 70% 60%)" opacity="0.55"/>
  </g>
    <text x="876" y="220" font-family="Inter, ui-sans-serif, system-ui, -apple-system, Segoe UI, sans-serif" font-size="12" fill="#f8fafc" font-weight="800">Fate Dice</text>
    <text x="876" y="238" font-family="Inter, ui-sans-serif, system-ui, -apple-system, Segoe UI, sans-serif" font-size="10" fill="#cbd5e1" font-weight="500">Tier 1 · +35 Crit</text>
    <text x="876" y="262" font-family="Inter, ui-sans-serif, system-ui, -apple-system, Segoe UI, sans-serif" font-size="9" fill="#a5b4fc" font-weight="500">Glove + Glove</text>
    <text x="876" y="282" font-family="Inter, ui-sans-serif, system-ui, -apple-system, Segoe UI, sans-serif" font-size="9" fill="#fde68a" font-weight="500">+35% crit chance. Critical hits<tspan x="876" dy="12">grant 3 mana.</tspan></text>
  </g>
<g clip-path="url(#clip-8)">
    <rect x="24" y="312" width="250" height="106" rx="8" fill="#111827" stroke="#0F766E" stroke-width="2"/>
    <g transform="translate(36 332) scale(1.3125)" aria-label="Recurve Edge">
    <rect x="1" y="1" width="30" height="30" rx="6" fill="#0b1220" stroke="#0F766E" stroke-width="2.5"/>
    <path d="M16 5l11 11-11 11L5 16z" fill="#0F766E"/>
    <circle cx="16" cy="16" r="3.5" fill="hsl(103 70% 60%)"/>
    <path d="M16 9l2.2 4.5 5 .7-3.6 3.5.9 5-4.5-2.4-4.5 2.4.9-5-3.6-3.5 5-.7z" fill="hsl(103 70% 60%)" opacity="0.55"/>
  </g>
    <text x="90" y="338" font-family="Inter, ui-sans-serif, system-ui, -apple-system, Segoe UI, sans-serif" font-size="12" fill="#f8fafc" font-weight="800">Recurve Edge</text>
    <text x="90" y="356" font-family="Inter, ui-sans-serif, system-ui, -apple-system, Segoe UI, sans-serif" font-size="10" fill="#cbd5e1" font-weight="500">Tier 1 · +20 AD, +20 AS</text>
    <text x="90" y="380" font-family="Inter, ui-sans-serif, system-ui, -apple-system, Segoe UI, sans-serif" font-size="9" fill="#a5b4fc" font-weight="500">Blade + Bow</text>
    <text x="90" y="400" font-family="Inter, ui-sans-serif, system-ui, -apple-system, Segoe UI, sans-serif" font-size="9" fill="#fde68a" font-weight="500">+20 AD, +20% attack speed.</text>
  </g>
<g clip-path="url(#clip-9)">
    <rect x="286" y="312" width="250" height="106" rx="8" fill="#111827" stroke="#0F766E" stroke-width="2"/>
    <g transform="translate(298 332) scale(1.3125)" aria-label="Executioner's Mark">
    <rect x="1" y="1" width="30" height="30" rx="6" fill="#0b1220" stroke="#0F766E" stroke-width="2.5"/>
    <path d="M16 5l11 11-11 11L5 16z" fill="#0F766E"/>
    <circle cx="16" cy="16" r="3.5" fill="hsl(340 70% 60%)"/>
    <path d="M16 9l2.2 4.5 5 .7-3.6 3.5.9 5-4.5-2.4-4.5 2.4.9-5-3.6-3.5 5-.7z" fill="hsl(340 70% 60%)" opacity="0.55"/>
  </g>
    <text x="352" y="338" font-family="Inter, ui-sans-serif, system-ui, -apple-system, Segoe UI, sans-serif" font-size="12" fill="#f8fafc" font-weight="800">Executioner's Mark</text>
    <text x="352" y="356" font-family="Inter, ui-sans-serif, system-ui, -apple-system, Segoe UI, sans-serif" font-size="10" fill="#cbd5e1" font-weight="500">Tier 1 · +20 AD, +20 Crit</text>
    <text x="352" y="380" font-family="Inter, ui-sans-serif, system-ui, -apple-system, Segoe UI, sans-serif" font-size="9" fill="#a5b4fc" font-weight="500">Blade + Glove</text>
    <text x="352" y="400" font-family="Inter, ui-sans-serif, system-ui, -apple-system, Segoe UI, sans-serif" font-size="9" fill="#fde68a" font-weight="500">+20 AD, +20% crit chance. Crits deal<tspan x="352" dy="12">+20% damage.</tspan></text>
  </g>
<g clip-path="url(#clip-10)">
    <rect x="548" y="312" width="250" height="106" rx="8" fill="#111827" stroke="#0F766E" stroke-width="2"/>
    <g transform="translate(560 332) scale(1.3125)" aria-label="Titan Cleaver">
    <rect x="1" y="1" width="30" height="30" rx="6" fill="#0b1220" stroke="#0F766E" stroke-width="2.5"/>
    <path d="M16 5l11 11-11 11L5 16z" fill="#0F766E"/>
    <circle cx="16" cy="16" r="3.5" fill="hsl(297 70% 60%)"/>
    <path d="M16 9l2.2 4.5 5 .7-3.6 3.5.9 5-4.5-2.4-4.5 2.4.9-5-3.6-3.5 5-.7z" fill="hsl(297 70% 60%)" opacity="0.55"/>
  </g>
    <text x="614" y="338" font-family="Inter, ui-sans-serif, system-ui, -apple-system, Segoe UI, sans-serif" font-size="12" fill="#f8fafc" font-weight="800">Titan Cleaver</text>
    <text x="614" y="356" font-family="Inter, ui-sans-serif, system-ui, -apple-system, Segoe UI, sans-serif" font-size="10" fill="#cbd5e1" font-weight="500">Tier 1 · +18 AD, +250 HP</text>
    <text x="614" y="380" font-family="Inter, ui-sans-serif, system-ui, -apple-system, Segoe UI, sans-serif" font-size="9" fill="#a5b4fc" font-weight="500">Blade + Belt</text>
    <text x="614" y="400" font-family="Inter, ui-sans-serif, system-ui, -apple-system, Segoe UI, sans-serif" font-size="9" fill="#fde68a" font-weight="500">+18 AD, +250 HP. Attacks cleave for<tspan x="614" dy="12">20% damage.</tspan></text>
  </g>
<g clip-path="url(#clip-11)">
    <rect x="810" y="312" width="250" height="106" rx="8" fill="#111827" stroke="#0F766E" stroke-width="2"/>
    <g transform="translate(822 332) scale(1.3125)" aria-label="Spell Battery">
    <rect x="1" y="1" width="30" height="30" rx="6" fill="#0b1220" stroke="#0F766E" stroke-width="2.5"/>
    <path d="M16 5l11 11-11 11L5 16z" fill="#0F766E"/>
    <circle cx="16" cy="16" r="3.5" fill="hsl(85 70% 60%)"/>
    <path d="M16 9l2.2 4.5 5 .7-3.6 3.5.9 5-4.5-2.4-4.5 2.4.9-5-3.6-3.5 5-.7z" fill="hsl(85 70% 60%)" opacity="0.55"/>
  </g>
    <text x="876" y="338" font-family="Inter, ui-sans-serif, system-ui, -apple-system, Segoe UI, sans-serif" font-size="12" fill="#f8fafc" font-weight="800">Spell Battery</text>
    <text x="876" y="356" font-family="Inter, ui-sans-serif, system-ui, -apple-system, Segoe UI, sans-serif" font-size="10" fill="#cbd5e1" font-weight="500">Tier 1 · +25 SP, +25 Mana</text>
    <text x="876" y="380" font-family="Inter, ui-sans-serif, system-ui, -apple-system, Segoe UI, sans-serif" font-size="9" fill="#a5b4fc" font-weight="500">Rod + Tear</text>
    <text x="876" y="400" font-family="Inter, ui-sans-serif, system-ui, -apple-system, Segoe UI, sans-serif" font-size="9" fill="#fde68a" font-weight="500">+25 spell power, +25 starting mana.</text>
  </g>
<g clip-path="url(#clip-12)">
    <rect x="24" y="430" width="250" height="106" rx="8" fill="#111827" stroke="#0F766E" stroke-width="2"/>
    <g transform="translate(36 450) scale(1.3125)" aria-label="Hexfire Orb">
    <rect x="1" y="1" width="30" height="30" rx="6" fill="#0b1220" stroke="#0F766E" stroke-width="2.5"/>
    <path d="M16 5l11 11-11 11L5 16z" fill="#0F766E"/>
    <circle cx="16" cy="16" r="3.5" fill="hsl(107 70% 60%)"/>
    <path d="M16 9l2.2 4.5 5 .7-3.6 3.5.9 5-4.5-2.4-4.5 2.4.9-5-3.6-3.5 5-.7z" fill="hsl(107 70% 60%)" opacity="0.55"/>
  </g>
    <text x="90" y="456" font-family="Inter, ui-sans-serif, system-ui, -apple-system, Segoe UI, sans-serif" font-size="12" fill="#f8fafc" font-weight="800">Hexfire Orb</text>
    <text x="90" y="474" font-family="Inter, ui-sans-serif, system-ui, -apple-system, Segoe UI, sans-serif" font-size="10" fill="#cbd5e1" font-weight="500">Tier 1 · +25 SP, +20 Crit</text>
    <text x="90" y="498" font-family="Inter, ui-sans-serif, system-ui, -apple-system, Segoe UI, sans-serif" font-size="9" fill="#a5b4fc" font-weight="500">Rod + Glove</text>
    <text x="90" y="518" font-family="Inter, ui-sans-serif, system-ui, -apple-system, Segoe UI, sans-serif" font-size="9" fill="#fde68a" font-weight="500">+25 spell power, +20% crit chance.<tspan x="90" dy="12">Spells can crit.</tspan></text>
  </g>
<g clip-path="url(#clip-13)">
    <rect x="286" y="430" width="250" height="106" rx="8" fill="#111827" stroke="#0F766E" stroke-width="2"/>
    <g transform="translate(298 450) scale(1.3125)" aria-label="Nullflame Wand">
    <rect x="1" y="1" width="30" height="30" rx="6" fill="#0b1220" stroke="#0F766E" stroke-width="2.5"/>
    <path d="M16 5l11 11-11 11L5 16z" fill="#0F766E"/>
    <circle cx="16" cy="16" r="3.5" fill="hsl(242 70% 60%)"/>
    <path d="M16 9l2.2 4.5 5 .7-3.6 3.5.9 5-4.5-2.4-4.5 2.4.9-5-3.6-3.5 5-.7z" fill="hsl(242 70% 60%)" opacity="0.55"/>
  </g>
    <text x="352" y="456" font-family="Inter, ui-sans-serif, system-ui, -apple-system, Segoe UI, sans-serif" font-size="12" fill="#f8fafc" font-weight="800">Nullflame Wand</text>
    <text x="352" y="474" font-family="Inter, ui-sans-serif, system-ui, -apple-system, Segoe UI, sans-serif" font-size="10" fill="#cbd5e1" font-weight="500">Tier 1 · +25 SP, +25 MR</text>
    <text x="352" y="498" font-family="Inter, ui-sans-serif, system-ui, -apple-system, Segoe UI, sans-serif" font-size="9" fill="#a5b4fc" font-weight="500">Rod + Cloak</text>
    <text x="352" y="518" font-family="Inter, ui-sans-serif, system-ui, -apple-system, Segoe UI, sans-serif" font-size="9" fill="#fde68a" font-weight="500">+25 spell power, +25 MR. Spells<tspan x="352" dy="12">shred 10 MR for 4s.</tspan></text>
  </g>
<g clip-path="url(#clip-14)">
    <rect x="548" y="430" width="250" height="106" rx="8" fill="#111827" stroke="#0F766E" stroke-width="2"/>
    <g transform="translate(560 450) scale(1.3125)" aria-label="Aegis Shell">
    <rect x="1" y="1" width="30" height="30" rx="6" fill="#0b1220" stroke="#0F766E" stroke-width="2.5"/>
    <path d="M16 5l11 11-11 11L5 16z" fill="#0F766E"/>
    <circle cx="16" cy="16" r="3.5" fill="hsl(216 70% 60%)"/>
    <path d="M16 9l2.2 4.5 5 .7-3.6 3.5.9 5-4.5-2.4-4.5 2.4.9-5-3.6-3.5 5-.7z" fill="hsl(216 70% 60%)" opacity="0.55"/>
  </g>
    <text x="614" y="456" font-family="Inter, ui-sans-serif, system-ui, -apple-system, Segoe UI, sans-serif" font-size="12" fill="#f8fafc" font-weight="800">Aegis Shell</text>
    <text x="614" y="474" font-family="Inter, ui-sans-serif, system-ui, -apple-system, Segoe UI, sans-serif" font-size="10" fill="#cbd5e1" font-weight="500">Tier 1 · +30 Armor, +30 MR</text>
    <text x="614" y="498" font-family="Inter, ui-sans-serif, system-ui, -apple-system, Segoe UI, sans-serif" font-size="9" fill="#a5b4fc" font-weight="500">Vest + Cloak</text>
    <text x="614" y="518" font-family="Inter, ui-sans-serif, system-ui, -apple-system, Segoe UI, sans-serif" font-size="9" fill="#fde68a" font-weight="500">+30 armor, +30 MR. Nearby allies<tspan x="614" dy="12">gain 10 armor/MR.</tspan></text>
  </g>
<g clip-path="url(#clip-15)">
    <rect x="810" y="430" width="250" height="106" rx="8" fill="#111827" stroke="#0F766E" stroke-width="2"/>
    <g transform="translate(822 450) scale(1.3125)" aria-label="Stoneguard Mail">
    <rect x="1" y="1" width="30" height="30" rx="6" fill="#0b1220" stroke="#0F766E" stroke-width="2.5"/>
    <path d="M16 5l11 11-11 11L5 16z" fill="#0F766E"/>
    <circle cx="16" cy="16" r="3.5" fill="hsl(91 70% 60%)"/>
    <path d="M16 9l2.2 4.5 5 .7-3.6 3.5.9 5-4.5-2.4-4.5 2.4.9-5-3.6-3.5 5-.7z" fill="hsl(91 70% 60%)" opacity="0.55"/>
  </g>
    <text x="876" y="456" font-family="Inter, ui-sans-serif, system-ui, -apple-system, Segoe UI, sans-serif" font-size="12" fill="#f8fafc" font-weight="800">Stoneguard Mail</text>
    <text x="876" y="474" font-family="Inter, ui-sans-serif, system-ui, -apple-system, Segoe UI, sans-serif" font-size="10" fill="#cbd5e1" font-weight="500">Tier 1 · +30 Armor, +300 HP</text>
    <text x="876" y="498" font-family="Inter, ui-sans-serif, system-ui, -apple-system, Segoe UI, sans-serif" font-size="9" fill="#a5b4fc" font-weight="500">Vest + Belt</text>
    <text x="876" y="518" font-family="Inter, ui-sans-serif, system-ui, -apple-system, Segoe UI, sans-serif" font-size="9" fill="#fde68a" font-weight="500">+30 armor, +300 HP. Taunt nearby<tspan x="876" dy="12">enemies for 1s at combat start.</tspan></text>
  </g>
<g clip-path="url(#clip-16)">
    <rect x="24" y="548" width="250" height="106" rx="8" fill="#111827" stroke="#0F766E" stroke-width="2"/>
    <g transform="translate(36 568) scale(1.3125)" aria-label="Ward Engine">
    <rect x="1" y="1" width="30" height="30" rx="6" fill="#0b1220" stroke="#0F766E" stroke-width="2.5"/>
    <path d="M16 5l11 11-11 11L5 16z" fill="#0F766E"/>
    <circle cx="16" cy="16" r="3.5" fill="hsl(279 70% 60%)"/>
    <path d="M16 9l2.2 4.5 5 .7-3.6 3.5.9 5-4.5-2.4-4.5 2.4.9-5-3.6-3.5 5-.7z" fill="hsl(279 70% 60%)" opacity="0.55"/>
  </g>
    <text x="90" y="574" font-family="Inter, ui-sans-serif, system-ui, -apple-system, Segoe UI, sans-serif" font-size="12" fill="#f8fafc" font-weight="800">Ward Engine</text>
    <text x="90" y="592" font-family="Inter, ui-sans-serif, system-ui, -apple-system, Segoe UI, sans-serif" font-size="10" fill="#cbd5e1" font-weight="500">Tier 1 · +25 Armor, +25 Mana</text>
    <text x="90" y="616" font-family="Inter, ui-sans-serif, system-ui, -apple-system, Segoe UI, sans-serif" font-size="9" fill="#a5b4fc" font-weight="500">Vest + Tear</text>
    <text x="90" y="636" font-family="Inter, ui-sans-serif, system-ui, -apple-system, Segoe UI, sans-serif" font-size="9" fill="#fde68a" font-weight="500">+25 armor, +25 starting mana. First<tspan x="90" dy="12">cast grants 220 shield.</tspan></text>
  </g>
<g clip-path="url(#clip-17)">
    <rect x="286" y="548" width="250" height="106" rx="8" fill="#111827" stroke="#0F766E" stroke-width="2"/>
    <g transform="translate(298 568) scale(1.3125)" aria-label="Spirit Bulwark">
    <rect x="1" y="1" width="30" height="30" rx="6" fill="#0b1220" stroke="#0F766E" stroke-width="2.5"/>
    <path d="M16 5l11 11-11 11L5 16z" fill="#0F766E"/>
    <circle cx="16" cy="16" r="3.5" fill="hsl(353 70% 60%)"/>
    <path d="M16 9l2.2 4.5 5 .7-3.6 3.5.9 5-4.5-2.4-4.5 2.4.9-5-3.6-3.5 5-.7z" fill="hsl(353 70% 60%)" opacity="0.55"/>
  </g>
    <text x="352" y="574" font-family="Inter, ui-sans-serif, system-ui, -apple-system, Segoe UI, sans-serif" font-size="12" fill="#f8fafc" font-weight="800">Spirit Bulwark</text>
    <text x="352" y="592" font-family="Inter, ui-sans-serif, system-ui, -apple-system, Segoe UI, sans-serif" font-size="10" fill="#cbd5e1" font-weight="500">Tier 1 · +30 MR, +300 HP</text>
    <text x="352" y="616" font-family="Inter, ui-sans-serif, system-ui, -apple-system, Segoe UI, sans-serif" font-size="9" fill="#a5b4fc" font-weight="500">Cloak + Belt</text>
    <text x="352" y="636" font-family="Inter, ui-sans-serif, system-ui, -apple-system, Segoe UI, sans-serif" font-size="9" fill="#fde68a" font-weight="500">+30 MR, +300 HP. Heal for 120 after<tspan x="352" dy="12">taking spell damage.</tspan></text>
  </g>
<g clip-path="url(#clip-18)">
    <rect x="548" y="548" width="250" height="106" rx="8" fill="#111827" stroke="#0F766E" stroke-width="2"/>
    <g transform="translate(560 568) scale(1.3125)" aria-label="Tempo Lens">
    <rect x="1" y="1" width="30" height="30" rx="6" fill="#0b1220" stroke="#0F766E" stroke-width="2.5"/>
    <path d="M16 5l11 11-11 11L5 16z" fill="#0F766E"/>
    <circle cx="16" cy="16" r="3.5" fill="hsl(110 70% 60%)"/>
    <path d="M16 9l2.2 4.5 5 .7-3.6 3.5.9 5-4.5-2.4-4.5 2.4.9-5-3.6-3.5 5-.7z" fill="hsl(110 70% 60%)" opacity="0.55"/>
  </g>
    <text x="614" y="574" font-family="Inter, ui-sans-serif, system-ui, -apple-system, Segoe UI, sans-serif" font-size="12" fill="#f8fafc" font-weight="800">Tempo Lens</text>
    <text x="614" y="592" font-family="Inter, ui-sans-serif, system-ui, -apple-system, Segoe UI, sans-serif" font-size="10" fill="#cbd5e1" font-weight="500">Tier 1 · +20 Mana, +20 AS</text>
    <text x="614" y="616" font-family="Inter, ui-sans-serif, system-ui, -apple-system, Segoe UI, sans-serif" font-size="9" fill="#a5b4fc" font-weight="500">Tear + Bow</text>
    <text x="614" y="636" font-family="Inter, ui-sans-serif, system-ui, -apple-system, Segoe UI, sans-serif" font-size="9" fill="#fde68a" font-weight="500">+20 starting mana, +20% attack<tspan x="614" dy="12">speed. Attacks grant +1 extra mana.</tspan></text>
  </g>
<g clip-path="url(#clip-19)">
    <rect x="810" y="548" width="250" height="106" rx="8" fill="#111827" stroke="#0F766E" stroke-width="2"/>
    <g transform="translate(822 568) scale(1.3125)" aria-label="Deadeye Scope">
    <rect x="1" y="1" width="30" height="30" rx="6" fill="#0b1220" stroke="#0F766E" stroke-width="2.5"/>
    <path d="M16 5l11 11-11 11L5 16z" fill="#0F766E"/>
    <circle cx="16" cy="16" r="3.5" fill="hsl(10 70% 60%)"/>
    <path d="M16 9l2.2 4.5 5 .7-3.6 3.5.9 5-4.5-2.4-4.5 2.4.9-5-3.6-3.5 5-.7z" fill="hsl(10 70% 60%)" opacity="0.55"/>
  </g>
    <text x="876" y="574" font-family="Inter, ui-sans-serif, system-ui, -apple-system, Segoe UI, sans-serif" font-size="12" fill="#f8fafc" font-weight="800">Deadeye Scope</text>
    <text x="876" y="592" font-family="Inter, ui-sans-serif, system-ui, -apple-system, Segoe UI, sans-serif" font-size="10" fill="#cbd5e1" font-weight="500">Tier 1 · +20 AS, +20 Crit</text>
    <text x="876" y="616" font-family="Inter, ui-sans-serif, system-ui, -apple-system, Segoe UI, sans-serif" font-size="9" fill="#a5b4fc" font-weight="500">Bow + Glove</text>
    <text x="876" y="636" font-family="Inter, ui-sans-serif, system-ui, -apple-system, Segoe UI, sans-serif" font-size="9" fill="#fde68a" font-weight="500">+20% attack speed, +20% crit chance.<tspan x="876" dy="12">+1 range if ranged.</tspan></text>
  </g>
</svg>
