<svg xmlns="http://www.w3.org/2000/svg" width="1084" height="324" viewBox="0 0 1084 324" role="img" aria-label="Basic Items">
  <defs><clipPath id="clip-0"><rect x="24" y="76" width="250" height="106" rx="8"/></clipPath><clipPath id="clip-1"><rect x="286" y="76" width="250" height="106" rx="8"/></clipPath><clipPath id="clip-2"><rect x="548" y="76" width="250" height="106" rx="8"/></clipPath><clipPath id="clip-3"><rect x="810" y="76" width="250" height="106" rx="8"/></clipPath><clipPath id="clip-4"><rect x="24" y="194" width="250" height="106" rx="8"/></clipPath><clipPath id="clip-5"><rect x="286" y="194" width="250" height="106" rx="8"/></clipPath><clipPath id="clip-6"><rect x="548" y="194" width="250" height="106" rx="8"/></clipPath><clipPath id="clip-7"><rect x="810" y="194" width="250" height="106" rx="8"/></clipPath></defs>
  <rect width="100%" height="100%" fill="#07111f"/>
  <rect x="10" y="10" width="1064" height="304" rx="16" fill="#0f172a" stroke="#24324f"/>
  <text x="24" y="42" font-family="Inter, ui-sans-serif, system-ui, -apple-system, Segoe UI, sans-serif" font-size="24" fill="#fbbf24" font-weight="800">Basic Items</text>
  <g clip-path="url(#clip-0)">
    <rect x="24" y="76" width="250" height="106" rx="8" fill="#111827" stroke="#334155" stroke-width="2"/>
    <g transform="translate(36 96) scale(1.3125)" aria-label="Blade">
    <rect x="1" y="1" width="30" height="30" rx="6" fill="#0b1220" stroke="#334155" stroke-width="2.5"/>
    <circle cx="16" cy="16" r="8" fill="#334155"/>
    <circle cx="16" cy="16" r="3.5" fill="hsl(318 70% 60%)"/>
    <path d="M16 9l2.2 4.5 5 .7-3.6 3.5.9 5-4.5-2.4-4.5 2.4.9-5-3.6-3.5 5-.7z" fill="hsl(318 70% 60%)" opacity="0.55"/>
  </g>
    <text x="90" y="102" font-family="Inter, ui-sans-serif, system-ui, -apple-system, Segoe UI, sans-serif" font-size="12" fill="#f8fafc" font-weight="800">Blade</text>
    <text x="90" y="120" font-family="Inter, ui-sans-serif, system-ui, -apple-system, Segoe UI, sans-serif" font-size="10" fill="#cbd5e1" font-weight="500">Basic · +15 AD</text>
    
    <text x="90" y="152" font-family="Inter, ui-sans-serif, system-ui, -apple-system, Segoe UI, sans-serif" font-size="9" fill="#fde68a" font-weight="500">+15 attack damage</text>
  </g>
<g clip-path="url(#clip-1)">
    <rect x="286" y="76" width="250" height="106" rx="8" fill="#111827" stroke="#334155" stroke-width="2"/>
    <g transform="translate(298 96) scale(1.3125)" aria-label="Rod">
    <rect x="1" y="1" width="30" height="30" rx="6" fill="#0b1220" stroke="#334155" stroke-width="2.5"/>
    <circle cx="16" cy="16" r="8" fill="#334155"/>
    <circle cx="16" cy="16" r="3.5" fill="hsl(238 70% 60%)"/>
    <path d="M16 9l2.2 4.5 5 .7-3.6 3.5.9 5-4.5-2.4-4.5 2.4.9-5-3.6-3.5 5-.7z" fill="hsl(238 70% 60%)" opacity="0.55"/>
  </g>
    <text x="352" y="102" font-family="Inter, ui-sans-serif, system-ui, -apple-system, Segoe UI, sans-serif" font-size="12" fill="#f8fafc" font-weight="800">Rod</text>
    <text x="352" y="120" font-family="Inter, ui-sans-serif, system-ui, -apple-system, Segoe UI, sans-serif" font-size="10" fill="#cbd5e1" font-weight="500">Basic · +20 SP</text>
    
    <text x="352" y="152" font-family="Inter, ui-sans-serif, system-ui, -apple-system, Segoe UI, sans-serif" font-size="9" fill="#fde68a" font-weight="500">+20 spell power</text>
  </g>
<g clip-path="url(#clip-2)">
    <rect x="548" y="76" width="250" height="106" rx="8" fill="#111827" stroke="#334155" stroke-width="2"/>
    <g transform="translate(560 96) scale(1.3125)" aria-label="Vest">
    <rect x="1" y="1" width="30" height="30" rx="6" fill="#0b1220" stroke="#334155" stroke-width="2.5"/>
    <circle cx="16" cy="16" r="8" fill="#334155"/>
    <circle cx="16" cy="16" r="3.5" fill="hsl(108 70% 60%)"/>
    <path d="M16 9l2.2 4.5 5 .7-3.6 3.5.9 5-4.5-2.4-4.5 2.4.9-5-3.6-3.5 5-.7z" fill="hsl(108 70% 60%)" opacity="0.55"/>
  </g>
    <text x="614" y="102" font-family="Inter, ui-sans-serif, system-ui, -apple-system, Segoe UI, sans-serif" font-size="12" fill="#f8fafc" font-weight="800">Vest</text>
    <text x="614" y="120" font-family="Inter, ui-sans-serif, system-ui, -apple-system, Segoe UI, sans-serif" font-size="10" fill="#cbd5e1" font-weight="500">Basic · +25 Armor</text>
    
    <text x="614" y="152" font-family="Inter, ui-sans-serif, system-ui, -apple-system, Segoe UI, sans-serif" font-size="9" fill="#fde68a" font-weight="500">+25 armor</text>
  </g>
<g clip-path="url(#clip-3)">
    <rect x="810" y="76" width="250" height="106" rx="8" fill="#111827" stroke="#334155" stroke-width="2"/>
    <g transform="translate(822 96) scale(1.3125)" aria-label="Cloak">
    <rect x="1" y="1" width="30" height="30" rx="6" fill="#0b1220" stroke="#334155" stroke-width="2.5"/>
    <circle cx="16" cy="16" r="8" fill="#334155"/>
    <circle cx="16" cy="16" r="3.5" fill="hsl(1 70% 60%)"/>
    <path d="M16 9l2.2 4.5 5 .7-3.6 3.5.9 5-4.5-2.4-4.5 2.4.9-5-3.6-3.5 5-.7z" fill="hsl(1 70% 60%)" opacity="0.55"/>
  </g>
    <text x="876" y="102" font-family="Inter, ui-sans-serif, system-ui, -apple-system, Segoe UI, sans-serif" font-size="12" fill="#f8fafc" font-weight="800">Cloak</text>
    <text x="876" y="120" font-family="Inter, ui-sans-serif, system-ui, -apple-system, Segoe UI, sans-serif" font-size="10" fill="#cbd5e1" font-weight="500">Basic · +25 MR</text>
    
    <text x="876" y="152" font-family="Inter, ui-sans-serif, system-ui, -apple-system, Segoe UI, sans-serif" font-size="9" fill="#fde68a" font-weight="500">+25 magic resist</text>
  </g>
<g clip-path="url(#clip-4)">
    <rect x="24" y="194" width="250" height="106" rx="8" fill="#111827" stroke="#334155" stroke-width="2"/>
    <g transform="translate(36 214) scale(1.3125)" aria-label="Tear">
    <rect x="1" y="1" width="30" height="30" rx="6" fill="#0b1220" stroke="#334155" stroke-width="2.5"/>
    <circle cx="16" cy="16" r="8" fill="#334155"/>
    <circle cx="16" cy="16" r="3.5" fill="hsl(188 70% 60%)"/>
    <path d="M16 9l2.2 4.5 5 .7-3.6 3.5.9 5-4.5-2.4-4.5 2.4.9-5-3.6-3.5 5-.7z" fill="hsl(188 70% 60%)" opacity="0.55"/>
  </g>
    <text x="90" y="220" font-family="Inter, ui-sans-serif, system-ui, -apple-system, Segoe UI, sans-serif" font-size="12" fill="#f8fafc" font-weight="800">Tear</text>
    <text x="90" y="238" font-family="Inter, ui-sans-serif, system-ui, -apple-system, Segoe UI, sans-serif" font-size="10" fill="#cbd5e1" font-weight="500">Basic · +20 Mana</text>
    
    <text x="90" y="270" font-family="Inter, ui-sans-serif, system-ui, -apple-system, Segoe UI, sans-serif" font-size="9" fill="#fde68a" font-weight="500">+20 starting mana</text>
  </g>
<g clip-path="url(#clip-5)">
    <rect x="286" y="194" width="250" height="106" rx="8" fill="#111827" stroke="#334155" stroke-width="2"/>
    <g transform="translate(298 214) scale(1.3125)" aria-label="Belt">
    <rect x="1" y="1" width="30" height="30" rx="6" fill="#0b1220" stroke="#334155" stroke-width="2.5"/>
    <circle cx="16" cy="16" r="8" fill="#334155"/>
    <circle cx="16" cy="16" r="3.5" fill="hsl(212 70% 60%)"/>
    <path d="M16 9l2.2 4.5 5 .7-3.6 3.5.9 5-4.5-2.4-4.5 2.4.9-5-3.6-3.5 5-.7z" fill="hsl(212 70% 60%)" opacity="0.55"/>
  </g>
    <text x="352" y="220" font-family="Inter, ui-sans-serif, system-ui, -apple-system, Segoe UI, sans-serif" font-size="12" fill="#f8fafc" font-weight="800">Belt</text>
    <text x="352" y="238" font-family="Inter, ui-sans-serif, system-ui, -apple-system, Segoe UI, sans-serif" font-size="10" fill="#cbd5e1" font-weight="500">Basic · +200 HP</text>
    
    <text x="352" y="270" font-family="Inter, ui-sans-serif, system-ui, -apple-system, Segoe UI, sans-serif" font-size="9" fill="#fde68a" font-weight="500">+200 HP</text>
  </g>
<g clip-path="url(#clip-6)">
    <rect x="548" y="194" width="250" height="106" rx="8" fill="#111827" stroke="#334155" stroke-width="2"/>
    <g transform="translate(560 214) scale(1.3125)" aria-label="Bow">
    <rect x="1" y="1" width="30" height="30" rx="6" fill="#0b1220" stroke="#334155" stroke-width="2.5"/>
    <circle cx="16" cy="16" r="8" fill="#334155"/>
    <circle cx="16" cy="16" r="3.5" fill="hsl(330 70% 60%)"/>
    <path d="M16 9l2.2 4.5 5 .7-3.6 3.5.9 5-4.5-2.4-4.5 2.4.9-5-3.6-3.5 5-.7z" fill="hsl(330 70% 60%)" opacity="0.55"/>
  </g>
    <text x="614" y="220" font-family="Inter, ui-sans-serif, system-ui, -apple-system, Segoe UI, sans-serif" font-size="12" fill="#f8fafc" font-weight="800">Bow</text>
    <text x="614" y="238" font-family="Inter, ui-sans-serif, system-ui, -apple-system, Segoe UI, sans-serif" font-size="10" fill="#cbd5e1" font-weight="500">Basic · +15 AS</text>
    
    <text x="614" y="270" font-family="Inter, ui-sans-serif, system-ui, -apple-system, Segoe UI, sans-serif" font-size="9" fill="#fde68a" font-weight="500">+15% attack speed</text>
  </g>
<g clip-path="url(#clip-7)">
    <rect x="810" y="194" width="250" height="106" rx="8" fill="#111827" stroke="#334155" stroke-width="2"/>
    <g transform="translate(822 214) scale(1.3125)" aria-label="Glove">
    <rect x="1" y="1" width="30" height="30" rx="6" fill="#0b1220" stroke="#334155" stroke-width="2.5"/>
    <circle cx="16" cy="16" r="8" fill="#334155"/>
    <circle cx="16" cy="16" r="3.5" fill="hsl(96 70% 60%)"/>
    <path d="M16 9l2.2 4.5 5 .7-3.6 3.5.9 5-4.5-2.4-4.5 2.4.9-5-3.6-3.5 5-.7z" fill="hsl(96 70% 60%)" opacity="0.55"/>
  </g>
    <text x="876" y="220" font-family="Inter, ui-sans-serif, system-ui, -apple-system, Segoe UI, sans-serif" font-size="12" fill="#f8fafc" font-weight="800">Glove</text>
    <text x="876" y="238" font-family="Inter, ui-sans-serif, system-ui, -apple-system, Segoe UI, sans-serif" font-size="10" fill="#cbd5e1" font-weight="500">Basic · +15 Crit</text>
    
    <text x="876" y="270" font-family="Inter, ui-sans-serif, system-ui, -apple-system, Segoe UI, sans-serif" font-size="9" fill="#fde68a" font-weight="500">+15% crit chance</text>
  </g>
</svg>
